HIERARCHY
ROOT Hips
{
  OFFSET -245.048 94.4831 -215.361
  CHANNELS 6 Xposition Yposition Zposition Zrotation Xrotation Yrotation
  JOINT ToSpine
  {
    OFFSET -0.0105055 1.38907 -7.13956
    CHANNELS 3 Zrotation Xrotation Yrotation
    JOINT Spine
    {
      OFFSET 0.0105055 10 1
      CHANNELS 3 Zrotation Xrotation Yrotation
      JOINT Spine1
      {
        OFFSET 0 12 1.60637
        CHANNELS 3 Zrotation Xrotation Yrotation
        JOINT Neck
        {
          OFFSET 0 27 2.26658
          CHANNELS 3 Zrotation Xrotation Yrotation
          JOINT Head
          {
            OFFSET 0 9 2.12705
            CHANNELS 3 Zrotation Xrotation Yrotation
            End Site
            {
              OFFSET 0 11 2
            }
          }
        }
        JOINT LeftShoulder
        {
          OFFSET 8 19.6109 2.86452
          CHANNELS 3 Zrotation Xrotation Yrotation
          JOINT LeftArm
          {
            OFFSET 12 1 0.681055
            CHANNELS 3 Zrotation Xrotation Yrotation
            JOINT LeftForeArm
            {
              OFFSET 19 0 -1.52608
              CHANNELS 3 Zrotation Xrotation Yrotation
              JOINT LeftHand
              {
                OFFSET 23 0 0
                CHANNELS 3 Zrotation Xrotation Yrotation
                End Site
                {
                  OFFSET 10 0 0
                }
              }
            }
          }
        }
        JOINT RightShoulder
        {
          OFFSET -8 19.6109 2.86452
          CHANNELS 3 Zrotation Xrotation Yrotation
          JOINT RightArm
          {
            OFFSET -12 1 0.681055
            CHANNELS 3 Zrotation Xrotation Yrotation
            JOINT RightForeArm
            {
              OFFSET -19 0 -1.52608
              CHANNELS 3 Zrotation Xrotation Yrotation
              JOINT RightHand
              {
                OFFSET -23 0 0
                CHANNELS 3 Zrotation Xrotation Yrotation
                End Site
                {
                  OFFSET -10 0 0
                }
              }
            }
          }
        }
      }
    }
  }
  JOINT LeftUpLeg
  {
    OFFSET 9 -7.17245 0
    CHANNELS 3 Zrotation Xrotation Yrotation
    JOINT LeftLeg
    {
      OFFSET 0 -44.1113 0
      CHANNELS 3 Zrotation Xrotation Yrotation
      JOINT LeftFoot
      {
        OFFSET 0 -36.1829 0
        CHANNELS 3 Zrotation Xrotation Yrotation
        JOINT LeftToeBase
        {
          OFFSET 0 -4.84184 13
          CHANNELS 3 Zrotation Xrotation Yrotation
          End Site
          {
            OFFSET 0 1 6
          }
        }
      }
    }
  }
  JOINT RightUpLeg
  {
    OFFSET -9 -7.17245 0
    CHANNELS 3 Zrotation Xrotation Yrotation
    JOINT RightLeg
    {
      OFFSET 0 -44.0551 0
      CHANNELS 3 Zrotation Xrotation Yrotation
      JOINT RightFoot
      {
        OFFSET 0 -36.1469 0
        CHANNELS 3 Zrotation Xrotation Yrotation
        JOINT RightToeBase
        {
          OFFSET 0 -4.92256 13
          CHANNELS 3 Zrotation Xrotation Yrotation
          End Site
          {
            OFFSET 0 1 6
          }
        }
      }
    }
  }
}
MOTION
Frames:	19
Frame Time:	0.0333333
125.394 90.5146 146.466 2.69801 -4.58293 -139.779 0 0 0 10.0856 9.83692 5.68705 -13.8544 -1.48141 8.34344 7.93977 -11.9631 -0.25728 -4.33093 0.0348947 2.2543 -24.0458 3.28764 -7.32075 -44.8803 12.0831 40.4718 18.7348 -11.5714 -120.601 -19.4372 0.61232 -3.57411 10.8896 2.64695 11.0238 40.2325 -5.96279 18.4165 -12.6416 -4.64613 109.857 -2.06787 -0.116996 6.47573 9.18224 -43.8703 25.8402 1.57935e-006 49.6883 -37.1824 16.0152 -5.22984 0.736214 0.69709 -8.67474 -0.748733 -2.27688 8.43511 8.68762 -1.33323e-007 35.2113 2.18551 -17.726 -15.7297 -2.46793 8.93626 -31.2972 0.993654 
131.653 88.3793 152.058 2.63797 -2.51786 -138.54 0 0 0 7.32778 15.2625 4.13897 -8.47269 -5.60816 5.88701 7.22927 -12.36 1.10189 -4.88378 -1.38105 3.45512 -26.9277 3.30016 -6.45696 -43.2091 13.1266 35.9248 20.4173 -12.5625 -120.298 -20.2901 0.796903 -4.45133 11.6262 2.70274 10.8076 40.0947 -5.78337 19.2571 -13.0944 -5.51303 112.442 -2.69485 -0.183768 7.80077 13.4137 -46.6054 26.9498 -2.01611e-006 65.4199 -28.1071 20.0284 -12.5057 2.21681 0.764086 -10.0754 -0.626194 -0.169523 4.93221 5.74615 2.61508e-008 40.7906 -1.02238 -21.6318 -28.7108 -5.59841 8.61446 -31.6906 -1.49409 
137.603 87.1167 157.442 3.10269 1.92101 -136.805 0 0 0 7.84743 20.4554 1.58274 -4.72477 -7.51175 3.26774 8.82956 -13.4997 3.2939 -5.44521 -2.26289 5.83198 -30.099 3.0028 -4.78871 -41.8565 14.2133 26.2292 20.4351 -10.8327 -116.767 -20.7938 0.602937 -3.28527 15.3896 3.30613 11.3013 39.0563 -5.09951 17.2674 -15.5582 -7.0111 113.673 -1.87441 -0.113895 6.95378 17.8333 -45.3992 25.2865 -1.9421e-006 79.1125 -21.3125 20.6555 -18.0736 3.32023 0.815596 -8.95617 -1.36837 2.93183 -0.473222 1.22639 -1.16094e-008 49.5692 1.22605 -22.5721 -35.9274 -7.40412 5.85416 -21.9019 -1.71267 
142.161 86.9822 161.583 3.73063 3.81357 -134.675 0 0 0 8.0105 19.4966 -0.304463 -1.98713 -4.71859 0.970194 7.26129 -14.5824 4.8891 -3.36582 -2.11782 6.55949 -33.7437 3.02921 -4.09876 -37.2148 14.5767 12.5491 22.5209 -10.045 -112.814 -21.7149 0.326351 -1.7014 16.7572 3.93323 13.1442 41.4486 -4.97274 9.48365 -14.7452 -6.3483 112.789 -1.99475 -0.115523 6.62829 18.8402 -42.0359 21.2072 1.24299e-005 88.0348 -18.966 22.342 -18.6463 3.7138 0.93335 -9.47573 -1.92662 3.86398 -5.46832 -4.31834 -5.62731e-008 53.22 2.46397 -27.7226 -34.049 -8.64177 6.28961 -23.7292 -2.33892 
146.015 87.2529 165.052 2.69161 4.01085 -133.158 0 0 0 4.7343 19.1114 -0.393978 0.402863 -5.15095 -0.0561822 8.56594 -10.4099 4.71027 -3.85524 -3.93021 7.03856 -33.2625 3.23867 -4.72308 -36.2952 15.9323 0.164362 23.6438 -8.5709 -108.799 -19.4682 0.41059 -2.39314 19.8107 4.3787 13.0385 43.3512 -4.27228 -0.978601 -13.5751 -4.46816 107.881 0.124908 0.00691795 6.3401 17.1578 -34.9897 16.9322 -180 88.1044 162.082 24.0944 -15.0283 3.22498 1.47724 -16.1346 -3.88948 2.70664 -9.82621 -6.49396 5.97608e-008 56.4778 3.6365 -27.5824 -33.6733 -8.4963 5.69686 -21.4388 -2.15636 
149.381 87.7601 168.371 1.51859 4.24489 -133.239 0 0 0 2.23303 18.5572 -0.204455 1.13259 -5.53634 -0.476634 10.7245 -7.19213 4.43985 -5.24353 -4.00282 7.82713 -31.8014 3.35682 -5.35097 -34.5377 16.414 -11.1159 21.6734 -7.01645 -107.086 -18.4526 0.327075 -2.01336 21.4866 4.33354 11.9593 46.8204 -1.88686 -8.64266 -11.0963 -1.91149 99.6521 1.71561 0.0796519 5.31602 15.9538 -25.3233 13.6039 180 88.653 162.965 21.7662 -15.4966 2.99705 1.34953 -16.4516 -2.45862 2.15671 -12.2575 -6.2497 1.72373e-007 56.2589 2.66713 -29.8297 -30.6059 -8.3369 5.75729 -22.1782 -3.8472 
151.959 88.6418 171.668 0.914997 4.75981 -134.757 0 0 0 2.26411 18.2617 -0.480502 -0.283457 -6.3633 -0.549837 13.1604 -4.43719 4.42061 -6.27826 -4.46511 8.90839 -29.0884 3.266 -5.76683 -33.7752 14.9244 -20.4428 20.5258 -6.24966 -106.212 -18.2209 0.494208 -3.08113 22.8253 4.51604 11.9129 50.5065 0.375095 -15.433 -10.7041 -0.133836 90.708 0.484481 0.0301426 7.12024 15.3777 -14.3443 11.1427 1.60676e-006 85.837 -19.6113 20.5732 -12.4033 2.25961 1.21059 -19.1358 1.25669 2.50352 -14.2785 -3.87102 -1.70227e-007 55.2083 3.6733 -28.9798 -28.7981 -7.59189 4.95574 -19.4722 -6.3357 
154.834 88.8527 175.181 0.33251 2.65069 -137.594 0 0 0 -1.86524 16.3165 0.542579 1.23603 -7.00221 -0.232749 12.3764 -3.37282 5.21559 -5.64049 -3.81312 9.50877 -28.2668 3.23175 -5.8836 -32.063 11.901 -27.0174 19.0731 -5.82092 -106.348 -16.2653 0.438093 -3.06497 20.9684 4.38136 12.4023 55.4232 2.17994 -20.0375 -10.6193 1.45801 82.2717 -1.46264 -0.0955633 7.47597 12.4382 -6.44238 10.1209 5.34636e-006 78.3858 -21.0427 19.0761 -11.4717 1.93381 1.36993 -18.5336 -1.41643 1.55162 -20.2882 0.462572 -8.14962e-008 57.0993 2.92787 -28.1701 -24.9648 -6.35829 5.30635 -20.9198 -5.90501 
156.699 89.4268 178.491 1.00563 5.46085 -137.512 0 0 0 3.0542 15.6458 -1.36277 -1.39744 -5.35748 -1.25716 12.8068 -3.54058 5.81933 -5.40176 -3.18176 10.165 -26.0642 3.17947 -6.34138 -32.1103 8.10659 -31.5079 16.8736 -5.29538 -106.923 -14.7233 0.385692 -2.98464 20.8318 4.64348 13.4197 57.382 2.18019 -23.1393 -8.49351 2.34008 74.7081 -1.44064 -0.0946841 7.52019 13.2539 3.66521 6.6425 3.0839e-006 67.4797 -23.7354 19.4658 -10.7009 1.84066 1.30428 -17.8735 -1.09839 3.54198 -20.4112 0.615616 3.85421e-007 54.5774 4.42325 -26.6763 -21.5833 -5.17511 4.79774 -18.8755 -6.88871 
159.402 89.4612 182.137 1.4984 4.63992 -137.629 0 0 0 2.58824 14.1876 -1.97236 -1.34965 -5.05259 -1.80949 13.4091 -4.256 6.33209 -5.78619 -2.93015 10.814 -24.5602 3.13578 -6.65947 -31.8111 4.25427 -35.681 16.5193 -5.12566 -106.764 -13.9852 0.318161 -2.59355 21.1452 4.85903 14.008 57.6964 0.568922 -24.7725 -9.0115 3.8956 66.8101 -0.767109 -0.0546152 8.1446 11.7544 8.9983 5.54918 -5.08618e-007 55.6543 -22.4107 17.0079 -9.48098 1.42078 1.69954 -23.5543 -2.31189 3.30993 -24.7832 1.394 9.83376e-008 54.0331 4.75799 -25.8362 -17.3819 -4.01597 5.08831 -20.2191 -6.88677 
161.92 89.2864 186.351 0.817529 3.99521 -137.496 0 0 0 2.58893 14.5474 -2.45001 -2.07979 -5.51429 -2.04786 13.1575 -5.15199 6.65031 -5.78666 -2.39407 10.9569 -24.2433 3.19809 -6.96272 -32.3497 1.3161 -39.3343 18.0195 -5.31378 -105.891 -13.9646 0.324652 -2.65037 21.5243 4.95517 14.1251 57.4453 -0.978036 -25.8195 -8.00046 4.54306 60.596 -1.75347 -0.109557 7.14986 8.86217 14.2956 4.70267 -1.04109e-007 42.1564 -19.169 12.6834 -19.4368 2.18086 1.73725 -32.9499 -10.043 1.24748 -28.6066 1.05766 9.98035e-008 53.9952 6.42432 -23.416 -14.8551 -3.09512 4.59149 -17.8874 -6.72765 
164.841 88.8854 190.603 0.518966 4.09079 -136.369 0 0 0 1.79802 15.1954 -2.65135 -0.229684 -5.18071 -2.43433 11.6141 -6.34541 6.88065 -4.85631 -2.75435 10.4521 -25.4592 3.34586 -7.04351 -32.5932 -0.570152 -43.2968 20.2393 -5.29364 -104.048 -13.6965 0.371988 -3.09666 21.6164 4.84406 13.6827 56.1008 -1.77736 -25.3373 -6.39787 4.70864 53.7928 -2.06197 -0.15433 8.55986 8.43316 15.861 6.78264 8.47416e-007 36.3555 -17.325 16.8496 -27.1015 4.08881 1.99987 -31.8787 -5.35383 -0.61569 -31.8296 -1.20895 4.10019e-007 53.0672 8.21023 -22.1282 -10.8852 -2.13469 4.53167 -17.5564 -6.39245 
168.1 88.6024 194.622 0.827313 4.30031 -136.298 0 0 0 1.64754 17.3851 -2.04571 0.281356 -7.0286 -1.69489 11.7018 -7.20853 6.17766 -5.14639 -3.91305 9.71919 -25.9759 3.56817 -7.56769 -34.3184 -0.00250481 -45.545 21.4907 -4.56832 -101.436 -12.9729 0.36198 -3.18294 21.72 4.58576 12.7221 55.8921 -2.69517 -22.6116 -5.05832 4.97658 45.5773 -2.525 -0.189408 8.57845 10.0852 12.4147 11.3442 -6.93373e-007 38.8242 -20.942 22.9238 -34.0856 7.11336 1.7441 -23.2292 -4.10347 -0.815177 -34.649 -1.9517 -9.13981e-008 50.442 9.4788 -20.6067 -6.83599 -1.24415 4.09935 -15.5573 -6.20877 
170.737 88.6323 198.172 -0.738437 4.55592 -136.294 0 0 0 1.031 19.1073 -2.05982 -0.516088 -7.74959 -1.58683 12.0002 -6.41563 6.06556 -4.59889 -4.20365 9.66553 -26.9349 3.73763 -7.76783 -35.973 -0.208527 -42.8716 26.4036 -4.81564 -99.5973 -13.8943 0.28242 -2.31749 25.0809 5.76042 14.7713 52.7108 -1.87768 -20.4609 -0.746734 1.05495 35.2953 -2.27319 -0.1523 7.66496 9.65663 10.3531 13.5779 -5.79634e-007 40.7617 -23.6494 25.8881 -36.4986 8.66795 1.66343 -19.2599 -4.91844 -2.95163 -34.3242 -5.14174 8.0492e-007 47.0774 13.0511 -24.6832 -3.92896 -0.859961 4.05663 -15.2931 -5.07219 
172.555 89.45 201.12 -3.8015 5.03633 -136.861 0 0 0 -1.33168 19.2831 -1.06323 -0.0868065 -6.17183 -1.09031 11.6245 -3.9589 5.25026 -4.74489 -5.63234 9.05643 -28.6351 3.88794 -7.66347 -36.5106 0.702949 -38.6735 27.1494 -3.49266 -96.7748 -12.412 -0.0511608 0.47048 24.4317 5.60234 14.6313 53.452 1.51543 -15.7224 0.41799 -1.1947 22.9324 0.225308 0.0155781 7.91043 6.66029 10.9107 14.1227 -4.82607e-007 40.075 -23.1837 26.5913 -34.9935 8.52058 1.59822 -18.1401 -4.48868 -5.94024 -31.4289 -8.80163 9.41355e-007 45.5886 19.101 -26.7531 -1.44938 -0.344681 4.4569 -17.2456 -6.60848 
174.19 90.3509 203.755 -5.6396 5.93403 -138.503 0 0 0 0.0709383 19.7227 -1.07785 -3.53346 -5.69355 -0.53527 12.4303 -3.0225 5.10393 -4.85038 -4.89222 9.27792 -29.6414 3.63542 -6.65462 -35.5503 1.94186 -31.3365 29.0943 -2.97844 -95.3346 -16.6784 0.318497 -2.17256 26.0316 5.53587 13.5781 52.7454 6.15726 -10.5709 1.57836 -1.40545 12.4008 -0.163937 -0.01534 10.6915 4.1844 11.4324 14.371 -4.10843e-007 38.6888 -21.0555 26.0813 -31.7199 7.52954 1.49313 -19.6329 -2.26952 -6.32205 -28.7869 -9.44907 -2.0519e-007 47.3652 15.9855 -23.9961 -1.7105 -0.363543 4.59334 -17.6979 -5.53958 
175.903 91.3177 205.872 -6.34254 6.73764 -140.58 0 0 0 0.549337 19.3148 0.0770292 -4.5378 -6.09326 0.707879 11.4157 0.650359 4.78731 -4.2494 -5.79951 8.96912 -29.8341 3.64222 -6.62005 -37.103 4.11406 -23.3836 32.0864 -1.27818 -92.0376 -18.3961 0.248721 -1.53589 25.9093 5.92234 14.8191 52.8978 7.64206 -8.71512 3.34358 -5.06362 6.99646 -0.575583 -0.0298844 5.94424 3.41216 10.696 14.7443 3.59336e-007 38.4608 -19.9261 21.8599 -31.5392 6.24301 1.58882 -16.7428 -4.8408 -5.13218 -26.0237 -8.23245 -6.10428e-007 50.2455 8.40928 -23.0786 -5.49575 -1.12287 4.40829 -16.7142 -4.12729 
177.456 92.5356 207.592 -6.36401 8.14385 -140.759 0 0 0 2.1407 17.8771 0.368121 -4.76986 -4.26705 1.17983 10.5019 1.81185 4.37105 -3.76182 -6.07342 8.30649 -30.6046 3.64874 -6.42862 -35.8609 6.18988 -16.087 33.237 1.18101 -88.1985 -18.6165 0.289838 -1.76821 25.201 5.88954 15.1072 53.2066 6.96944 -6.93468 2.72672 1.60711 2.43905 0.306166 0.0247029 9.22577 4.10843 11.4984 15.0202 -1.98112e-007 35.3039 -20.297 20.0022 -28.304 5.092 1.50896 -17.4736 -3.70482 -3.95437 -21.8345 -7.69446 -4.73495e-008 53.2438 1.05334 -22.8057 -9.72497 -1.96593 3.95339 -14.8084 -4.1893 
178.987 93.6542 209.208 -7.39184 8.63867 -139.737 0 0 0 2.09409 17.5435 0.573432 -4.59304 -3.46321 1.32738 10.2389 1.40382 3.66174 -3.77819 -5.51617 7.49278 -29.714 3.54339 -6.37893 -37.5409 8.31322 -9.24615 26.8536 3.18958 -83.7288 -20.2514 0.355926 -1.99279 24.4223 5.49082 14.2807 53.723 5.03113 -6.82399 1.6917 1.10969 4.95204 3.45904 0.250227 8.27262 3.32557 12.0685 13.006 -0.0375443 32.2304 -19.6286 17.0504 -25.9282 3.95281 1.47615 -16.4775 -3.75196 -4.95518 -17.4525 -8.08054 -9.9251e-008 56.3239 -3.494 -22.9315 -10.9273 -2.22285 3.86516 -14.4709 -5.74112 
